<mxfile host="app.diagrams.net" modified="2023-09-24T02:52:10.689Z" agent="Mozilla/5.0 (Windows NT 10.0; Win64; x64) AppleWebKit/537.36 (KHTML, like Gecko) Chrome/117.0.0.0 Safari/537.36" etag="9TNh9b__uRIS9HGAEj-G" version="21.8.1" type="github">
  <diagram name="Page-1" id="2YBvvXClWsGukQMizWep">
    <mxGraphModel dx="1389" dy="799" grid="1" gridSize="10" guides="1" tooltips="1" connect="1" arrows="1" fold="1" page="1" pageScale="1" pageWidth="850" pageHeight="1100" math="0" shadow="0">
      <root>
        <mxCell id="0" />
        <mxCell id="1" parent="0" />
        <mxCell id="GDR48I6KjPxkWbW32fzh-1" value="MongoDB" style="shape=cylinder3;whiteSpace=wrap;html=1;boundedLbl=1;backgroundOutline=1;size=15;" vertex="1" parent="1">
          <mxGeometry width="80" height="100" as="geometry" />
        </mxCell>
        <mxCell id="GDR48I6KjPxkWbW32fzh-4" value="APIs&lt;br&gt;GO" style="whiteSpace=wrap;html=1;" vertex="1" parent="1">
          <mxGeometry x="140" width="120" height="40" as="geometry" />
        </mxCell>
        <mxCell id="GDR48I6KjPxkWbW32fzh-5" value="Auth&lt;br&gt;GO" style="whiteSpace=wrap;html=1;" vertex="1" parent="1">
          <mxGeometry x="320" width="100" height="50" as="geometry" />
        </mxCell>
        <mxCell id="GDR48I6KjPxkWbW32fzh-6" value="Session&lt;br&gt;React" style="whiteSpace=wrap;html=1;" vertex="1" parent="1">
          <mxGeometry x="480" width="120" height="60" as="geometry" />
        </mxCell>
      </root>
    </mxGraphModel>
  </diagram>
</mxfile>
